<svg width="24" height="24" viewBox="0 0 24 24" fill="none" xmlns="http://www.w3.org/2000/svg">
<path d="M17.7928 7.61755C17.543 6.96926 17.0307 6.4569 16.3824 6.20715C15.9404 6.04389 15.4737 5.95744 15.0026 5.95153C14.2188 5.91589 13.9832 5.9082 11.9999 5.9082C10.0167 5.9082 9.78137 5.9154 8.99817 5.95141C8.52697 5.9567 8.06022 6.04317 7.6184 6.20703C6.97009 6.45676 6.4577 6.96913 6.20794 7.61743C6.04475 8.05943 5.95832 8.52607 5.95239 8.99719C5.91693 9.78106 5.90918 10.0157 5.90918 11.9999C5.90918 13.9841 5.91638 14.2193 5.95239 15.0025C5.9577 15.4737 6.04414 15.9405 6.20794 16.3823C6.45804 17.0303 6.97034 17.5423 7.6184 17.7921C8.06026 17.9558 8.52699 18.0423 8.99817 18.0477V18.0479C9.78112 18.0839 10.0157 18.0911 11.9999 18.0911C13.9841 18.0911 14.2194 18.0839 15.0026 18.0479C15.4738 18.0425 15.9405 17.956 16.3824 17.7922C17.0304 17.5424 17.5427 17.0304 17.7928 16.3824C17.9562 15.9405 18.0427 15.4738 18.0484 15.0026C18.0844 14.2187 18.0916 13.9842 18.0916 12C18.0916 10.0158 18.0844 9.78118 18.0484 8.99731C18.0431 8.52612 17.9566 8.05938 17.7928 7.61755ZM11.9999 15.815C9.89289 15.8151 8.18474 14.107 8.18469 12C8.18469 11.9999 8.18469 11.9998 8.18469 11.9998H8.18475C8.18477 9.89266 9.89291 8.18454 12 8.18456C14.1071 8.18458 15.8152 9.89272 15.8152 11.9998C15.8152 14.1069 14.107 15.815 11.9999 15.815ZM15.9659 8.92517C15.4735 8.92336 15.0758 8.52271 15.0776 8.03029C15.0794 7.54029 15.4763 7.14356 15.9663 7.14196H15.9666C16.459 7.1405 16.8594 7.53849 16.8609 8.03091C16.8623 8.52333 16.4644 8.9237 15.9719 8.92517C15.9699 8.92518 15.9679 8.92517 15.9659 8.92517H15.9659Z" fill="white"/>
<path d="M12.0003 9.52344C10.6324 9.52342 9.5234 10.6323 9.52338 12.0003C9.52336 13.3682 10.6323 14.4772 12.0002 14.4772C13.3682 14.4773 14.4772 13.3683 14.4772 12.0004V12.0004C14.4773 10.6326 13.3686 9.52361 12.0008 9.52344C12.0007 9.52344 12.0005 9.52344 12.0003 9.52344Z" fill="white"/>
<path d="M21.9293 7.07086C21.9205 6.29727 21.7786 5.53097 21.5096 4.8056C21.3142 4.27567 21.0024 3.79631 20.5972 3.40277C20.2038 2.99754 19.7244 2.68575 19.1944 2.49036C18.4688 2.22211 17.7027 2.08019 16.9291 2.07074C15.6422 2.01306 15.2571 2 11.9997 2C8.74353 2 8.35718 2.0119 7.07086 2.07074C6.29727 2.07945 5.53097 2.2214 4.8056 2.49036C4.27548 2.68544 3.79604 2.99728 3.40277 3.40277C2.99825 3.79705 2.68658 4.27644 2.49036 4.80615C2.22214 5.53175 2.08022 6.29794 2.07074 7.07147C2.01306 8.35834 2 8.74353 2 12.0008C2 15.2582 2.0119 15.644 2.07135 16.9297C2.08008 17.7033 2.22204 18.4696 2.491 19.195C2.68602 19.7249 2.99787 20.2042 3.40341 20.5972C3.79718 21.002 4.27647 21.3138 4.80624 21.5096C5.5316 21.7786 6.29791 21.9206 7.0715 21.9293C8.35718 21.9887 8.74353 22 11.9997 22C15.2571 22 15.6434 21.9881 16.9291 21.9293C17.7027 21.9206 18.469 21.7786 19.1944 21.5096C20.2582 21.0994 21.0992 20.2587 21.5096 19.195C21.778 18.4694 21.9199 17.7032 21.9293 16.9297C21.9881 15.6428 22 15.2565 22 12.0003C22 8.74292 21.9881 8.35779 21.9293 7.07086ZM19.3854 15.0632C19.3735 15.6796 19.2568 16.2895 19.0403 16.8668C18.6543 17.8649 17.8652 18.654 16.8671 19.04C16.2898 19.2562 15.6799 19.3729 15.0636 19.3851C14.2714 19.4217 14.0181 19.4301 12.0003 19.4301C9.98255 19.4301 9.72968 19.4211 8.93701 19.3851C8.32067 19.3728 7.71087 19.2561 7.13354 19.04C6.13536 18.654 5.34629 17.865 4.96033 16.8668C4.74412 16.2894 4.62743 15.6796 4.61523 15.0632C4.57861 14.2711 4.57023 14.0178 4.57023 12C4.57023 9.98226 4.57865 9.72896 4.61523 8.93673C4.62744 8.32038 4.74412 7.71057 4.96033 7.13326C5.34623 6.13504 6.13532 5.34592 7.13354 4.96C7.71085 4.74378 8.32065 4.62708 8.937 4.61487H8.93731C9.72997 4.57831 9.98369 4.56987 12.0012 4.56987C14.0186 4.56987 14.2718 4.57865 15.0641 4.61487C15.6805 4.62693 16.2904 4.74364 16.8677 4.96C17.8655 5.34624 18.6543 6.13525 19.0403 7.13322C19.2565 7.71052 19.3732 8.32034 19.3854 8.93669C19.4214 9.72892 19.4298 9.98222 19.4298 12C19.4298 14.0177 19.4214 14.2704 19.3854 15.0632Z" fill="white"/>
</svg>
