<svg width="30" height="32" viewBox="0 0 30 32" fill="none" xmlns="http://www.w3.org/2000/svg">
<path fill-rule="evenodd" clip-rule="evenodd" d="M17.5842 0.988281C15.7259 -0.0846358 13.4363 -0.0846345 11.578 0.98828L6.66968 3.82208V6.697L6.66992 6.69686V11.015C6.66992 12.2209 7.3134 13.3351 8.35788 13.9378L19.56 20.4018C19.8338 20.5598 20.0026 20.8519 20.0026 21.1681V26.923L16.3393 29.0379C15.2513 29.6661 13.9109 29.6661 12.8229 29.0379L12.2004 30.116L12.8229 29.0379L4.24798 24.0873C3.15999 23.4591 2.48975 22.2982 2.48975 21.0419V18.443L7.29194 21.214L12.9574 24.4832C13.1914 24.6182 13.3356 24.8678 13.3356 25.138C13.3356 25.8255 13.8929 26.3829 14.5804 26.3829C15.268 26.3829 15.8253 25.8255 15.8253 25.138C15.8253 23.9781 15.2064 22.9064 14.2018 22.3267L2.87085 15.7884C2.63685 15.6534 2.49268 15.4037 2.49268 15.1335C2.49268 15.1046 2.4917 15.0759 2.48975 15.0475V11.1405C2.48975 9.9106 3.1321 8.77217 4.17992 8.13548V5.25954L3.00311 5.93897L3.0031 5.93898C1.14478 7.01189 0 8.99468 0 11.1405V21.0419C0 23.1877 1.14477 25.1705 3.00311 26.2435L11.578 31.1941C13.4363 32.267 15.7259 32.267 17.5842 31.1941L22.5039 28.3537V25.4788L22.4923 25.4855V21.1681C22.4923 19.9622 21.8488 18.848 20.8043 18.2453L9.60223 11.7813C9.32839 11.6233 9.15968 11.3311 9.15968 11.015V5.25941L12.8229 3.14447L12.2019 2.06884L12.8229 3.14447C13.9109 2.51631 15.2513 2.51631 16.3393 3.14447L16.9603 2.06884L16.3393 3.14447L24.9142 8.09516C26.0022 8.72332 26.6724 9.8842 26.6724 11.1405V14.5009L16.2039 8.46027C15.9699 8.32524 15.8257 8.07561 15.8257 7.80542C15.8257 7.1179 15.2683 6.56055 14.5808 6.56055C13.8933 6.56055 13.3359 7.1179 13.3359 7.80542C13.3359 8.96529 13.9549 10.037 14.9595 10.6168L26.2904 17.155C26.5244 17.29 26.6686 17.5397 26.6686 17.8099C26.6686 17.843 26.6699 17.8758 26.6724 17.9083V21.0419C26.6724 22.2673 26.0347 23.4019 24.9937 24.04V26.9163L26.1591 26.2434C28.0174 25.1705 29.1622 23.1877 29.1622 21.0419V11.1405C29.1622 8.99468 28.0174 7.01188 26.159 5.93897L17.5842 0.988281Z" fill="#7B3FE4"/>
</svg>
